<svg xmlns="http://www.w3.org/2000/svg" xmlns:xlink="http://www.w3.org/1999/xlink" width="557" height="128" viewBox="0 0 557 128">
  <symbol id="email" viewBox="0 0 128 96">
    <path d="M116,59.882H12a12.013,12.013,0,0,0-12,12v72a12.013,12.013,0,0,0,12,12H116a12.013,12.013,0,0,0,12-12v-72a12.013,12.013,0,0,0-12-12Zm0,8a3.977,3.977,0,0,1,1.533.31L64,114.589l-53.533-46.4A3.982,3.982,0,0,1,12,67.882Zm0,80H12a4,4,0,0,1-4-4V76.644l53.379,46.262a4.006,4.006,0,0,0,5.242,0L120,76.644v67.238a4,4,0,0,1-4,4Z" transform="translate(0 -59.764)"/>
  </symbol>
  <symbol id="facebook" viewBox="0 0 128 128">
  <path id="Path_1" data-name="Path 1" d="M297.277,508.668q-3.2.521-6.422.961Q294.078,509.189,297.277,508.668Zm0,0" transform="translate(-220.912 -384)"/>
      <path id="Path_2" data-name="Path 2" d="M302.4,507.793c-1.02.188-2.039.359-3.059.535C300.359,508.152,301.379,507.98,302.4,507.793Zm0,0" transform="translate(-225.854 -384)"/>
      <path id="Path_3" data-name="Path 3" d="M285.137,510.34q-3.744.422-7.527.742Q281.389,510.766,285.137,510.34Zm0,0" transform="translate(-211.314 -384)"/>
      <path id="Path_4" data-name="Path 4" d="M290.055,509.738c-1.2.16-2.406.309-3.609.449C287.648,510.047,288.855,509.9,290.055,509.738Zm0,0" transform="translate(-216.359 -384)"/>
      <path id="Path_5" data-name="Path 5" d="M309.367,506.41c-.9.191-1.8.383-2.7.566C307.566,506.793,308.469,506.6,309.367,506.41Zm0,0" transform="translate(-231.219 -384)"/>
      <path id="Path_6" data-name="Path 6" d="M326.664,502.113c-.727.207-1.453.4-2.18.605C325.211,502.516,325.938,502.32,326.664,502.113Zm0,0" transform="translate(-244.404 -384)"/>
      <path id="Path_7" data-name="Path 7" d="M321.434,503.543c-.789.207-1.582.418-2.375.617Q320.248,503.861,321.434,503.543Zm0,0" transform="translate(-240.409 -384)"/>
      <path id="Path_8" data-name="Path 8" d="M314.59,505.254c-.836.2-1.68.379-2.523.566C312.91,505.633,313.754,505.449,314.59,505.254Zm0,0" transform="translate(-235.209 -384)"/>
      <path id="Path_9" data-name="Path 9" d="M277.527,511.09q-2.021.17-4.047.3Q275.508,511.26,277.527,511.09Zm0,0" transform="translate(-206.744 -384)"/>
      <path id="Path_10" data-name="Path 10" d="M128,64a64,64,0,1,0-64,64c.376,0,.75-.008,1.125-.015V78.164H51.375V62.14h13.75V50.348c0-13.676,8.349-21.119,20.548-21.119A113.187,113.187,0,0,1,98,29.858V44.151H89.588c-6.637,0-7.922,3.154-7.922,7.782V62.14H97.535L95.467,78.164h-13.8v47.363A64.035,64.035,0,0,0,128,64Zm0,0"/>
      <path id="Path_11" data-name="Path 11" d="M272.914,511.43q-4,.258-8.023.4Q268.916,511.693,272.914,511.43Zm0,0" transform="translate(-201.831 -384)"/>
      <path id="Path_12" data-name="Path 12" d="M264.754,511.836q-2.121.07-4.25.105Q262.631,511.906,264.754,511.836Zm0,0" transform="translate(-197.013 -384)"/>
  </symbol>
  <symbol id="github" viewBox="0 0 128 128">
    <path id="github" d="M64,.5C28.64.5,0,29.884,0,66.124c0,29,18.336,53.592,43.76,62.263,3.2.618,4.373-1.414,4.373-3.155,0-1.558-.053-5.688-.08-11.158-17.8,3.957-21.557-8.8-21.557-8.8-2.912-7.574-7.12-9.6-7.12-9.6-5.8-4.068.448-3.985.448-3.985,6.427.456,9.8,6.762,9.8,6.762,5.707,10.034,14.981,7.134,18.64,5.459.576-4.246,2.224-7.135,4.053-8.776C38.107,93.488,23.168,87.845,23.168,62.7a25.672,25.672,0,0,1,6.587-17.608c-.72-1.658-2.88-8.331.56-17.369,0,0,5.36-1.759,17.6,6.728a58.9,58.9,0,0,1,32,0c12.16-8.487,17.52-6.728,17.52-6.728,3.44,9.038,1.28,15.71.64,17.369a25.779,25.779,0,0,1,6.56,17.608c0,25.21-14.96,30.758-29.2,32.372,2.24,1.97,4.32,5.994,4.32,12.143,0,8.782-.08,15.838-.08,17.97,0,1.72,1.12,3.773,4.4,3.116C109.68,119.688,128,95.079,128,66.124,128,29.884,99.344.5,64,.5Z" />
  </symbol>
  <symbol id="instagram" viewBox="0 0 128 128">
  <path id="Path_13" data-name="Path 13" d="M128.124,37.632A46.764,46.764,0,0,0,125.148,22.1,32.792,32.792,0,0,0,106.415,3.376,46.909,46.909,0,0,0,90.885.4C84.032.075,81.856,0,64.474,0S44.917.075,38.089.375A46.8,46.8,0,0,0,22.558,3.35,31.238,31.238,0,0,0,11.2,10.75,31.514,31.514,0,0,0,3.826,22.08,46.889,46.889,0,0,0,.85,37.607c-.325,6.852-.4,9.027-.4,26.406s.075,19.554.375,26.38A46.761,46.761,0,0,0,3.8,105.921,32.787,32.787,0,0,0,22.533,124.65a46.915,46.915,0,0,0,15.531,2.975c6.827.3,9,.375,26.385.375s19.557-.074,26.385-.375a46.776,46.776,0,0,0,15.53-2.975A32.743,32.743,0,0,0,125.1,105.921a46.921,46.921,0,0,0,2.976-15.528c.3-6.827.375-9,.375-26.38S128.424,44.459,128.124,37.632Zm-11.529,52.26a35.078,35.078,0,0,1-2.2,11.877,21.235,21.235,0,0,1-12.155,12.153,35.221,35.221,0,0,1-11.88,2.2c-6.753.3-8.778.375-25.86.375s-19.132-.074-25.861-.375a35.078,35.078,0,0,1-11.88-2.2,19.7,19.7,0,0,1-7.352-4.776A19.9,19.9,0,0,1,14.63,101.8a35.208,35.208,0,0,1-2.2-11.877c-.3-6.751-.375-8.777-.375-25.856s.074-19.129.375-25.855a35.06,35.06,0,0,1,2.2-11.877,19.455,19.455,0,0,1,4.8-7.352A19.874,19.874,0,0,1,26.785,14.2,35.245,35.245,0,0,1,38.664,12c6.753-.3,8.779-.375,25.86-.375,17.107,0,19.132.075,25.861.375a35.1,35.1,0,0,1,11.88,2.2,19.686,19.686,0,0,1,7.352,4.775,19.9,19.9,0,0,1,4.777,7.352,35.221,35.221,0,0,1,2.2,11.877c.3,6.751.375,8.776.375,25.855s-.074,19.082-.374,25.834Zm0,0"/>
      <path id="Path_14" data-name="Path 14" d="M157.837,124.5a32.882,32.882,0,1,0,32.888,32.884A32.881,32.881,0,0,0,157.837,124.5Zm0,54.211a21.329,21.329,0,1,1,21.333-21.33,21.328,21.328,0,0,1-21.333,21.33Zm0,0" transform="translate(-93.363 -93.369)"/>
      <path id="Path_15" data-name="Path 15" d="M377.806,96.278a7.678,7.678,0,1,1-7.678-7.676,7.678,7.678,0,0,1,7.678,7.676Zm0,0" transform="translate(-271.465 -66.447)"/>
  </symbol>
</svg>
